<svg width="20" height="20" viewBox="0 0 20 20" fill="none" xmlns="http://www.w3.org/2000/svg">
<path fill-rule="evenodd" clip-rule="evenodd" d="M6.28391 1.79764C8.6249 0.490804 11.5022 0.51364 13.8212 1.85747C16.1174 3.22867 17.5129 5.67585 17.4999 8.30831C17.4465 10.9236 15.9501 13.3818 14.0795 15.2822C13 16.384 11.7921 17.3583 10.481 18.1851C10.3459 18.2601 10.198 18.3104 10.0445 18.3333C9.89677 18.3273 9.75294 18.2853 9.62589 18.2112C7.62407 16.9689 5.86789 15.3831 4.4418 13.53C3.2485 11.9832 2.57054 10.1145 2.5 8.17754C2.49845 5.54004 3.94298 3.10447 6.28391 1.79764ZM7.63702 9.26926C8.03082 10.202 8.9603 10.8104 9.99143 10.8104C10.667 10.815 11.3163 10.555 11.7949 10.0884C12.2734 9.62167 12.5414 8.98711 12.5389 8.3259C12.5425 7.31674 11.9241 6.40498 10.9725 6.01633C10.0209 5.62768 8.92369 5.83884 8.19323 6.55118C7.46284 7.26354 7.24325 8.33659 7.63702 9.26926Z" fill="#EB8D0A"/>
<path d="M10.1892 15.1586C13.0551 15.1586 15.3783 12.8353 15.3783 9.96943C15.3783 7.10354 13.0551 4.78027 10.1892 4.78027C7.32327 4.78027 5 7.10354 5 9.96943C5 12.8353 7.32327 15.1586 10.1892 15.1586Z" fill="#EB8D0A"/>
<path fill-rule="evenodd" clip-rule="evenodd" d="M5 11.2286V6.49979L5.00829 6.49803C5.31493 6.43108 5.55339 6.16442 5.59906 5.83098C5.66926 5.85418 5.74387 5.86667 5.82121 5.86667C6.23532 5.86667 6.57101 5.5085 6.57101 5.06667C6.57101 5.04422 6.57015 5.02198 6.56845 5H6.89236C7.83853 5 8.55561 5.25397 9.04357 5.76191C9.53749 6.26984 9.78445 7.06984 9.78445 8.1619C9.78445 10.4984 8.85017 11.6667 6.98162 11.6667H5.45524C5.15175 11.6667 5 11.5206 5 11.2286ZM6.71383 9.65714V6.80952H6.80309C7.18395 6.80952 7.46066 6.90159 7.63323 7.08571C7.81176 7.26984 7.90102 7.66667 7.90102 8.27619C7.90102 8.87937 7.81473 9.31111 7.64216 9.57143C7.47553 9.83175 7.22858 9.9619 6.90128 9.9619C6.81202 9.9619 6.75846 9.94603 6.74061 9.91429C6.72276 9.87619 6.71383 9.79048 6.71383 9.65714Z" fill="white"/>
<path fill-rule="evenodd" clip-rule="evenodd" d="M13.9735 8.22857C14.5091 7.88571 14.7768 7.38413 14.7768 6.72381C14.7768 5.5746 14.0806 5 12.6881 5H10.6529C10.5875 5 10.5428 5.0127 10.519 5.0381C10.5012 5.05714 10.4923 5.10159 10.4923 5.17143V11.2667C10.4923 11.3873 10.525 11.4857 10.5905 11.5619C10.6559 11.6317 10.7392 11.6667 10.8404 11.6667H12.947C12.977 11.6667 13.0067 11.6664 13.0361 11.6657C13.0344 11.6441 13.0336 11.6221 13.0336 11.6C13.0336 11.571 13.035 11.5424 13.0378 11.5143C13.035 11.4861 13.0336 11.4575 13.0336 11.4286C13.0336 10.9867 13.3693 10.6286 13.7834 10.6286C13.8512 10.6286 13.9168 10.6382 13.9793 10.6562C14.0896 10.361 14.36 10.1524 14.676 10.1524C14.7876 10.1524 14.8935 10.1784 14.9886 10.225C14.9962 10.1554 15 10.0836 15 10.0095C15 9.49524 14.9018 9.09841 14.7054 8.81905C14.5091 8.53968 14.2651 8.34286 13.9735 8.22857ZM12.2061 7.79048V6.54286H12.3935C12.6494 6.54286 12.8309 6.59365 12.938 6.69524C13.0511 6.79683 13.1076 6.95873 13.1076 7.18095C13.1076 7.5873 12.822 7.79048 12.2507 7.79048H12.2061ZM12.2061 10.1524V8.91429H12.3935C12.6494 8.91429 12.8309 8.95873 12.938 9.04762C13.0511 9.13651 13.1076 9.29206 13.1076 9.51429C13.1076 9.73651 13.0481 9.89841 12.9291 10C12.8101 10.1016 12.6227 10.1524 12.3668 10.1524H12.2061Z" fill="white"/>
</svg>
